<svg width="250" height="160" viewBox="0 0 250 160" fill="none" xmlns="http://www.w3.org/2000/svg">
<g clip-path="url(#clip0_191_447)">
<path d="M87.3691 72.4967C87.3691 81.326 80.2097 88.4763 71.3691 88.4763C62.5286 88.4763 55.3691 81.326 55.3691 72.4967C55.3691 63.6674 62.5286 56.5171 71.3691 56.5171C80.2097 56.5171 87.3691 63.6674 87.3691 72.4967Z" fill="#BDAC8B"/>
<path d="M193.386 72.4967C193.386 81.326 186.236 88.4763 177.406 88.4763C168.577 88.4763 161.427 81.326 161.427 72.4967C161.427 63.6674 168.577 56.5171 177.406 56.5171C186.236 56.5171 193.386 63.6674 193.386 72.4967Z" fill="#BDAC8B"/>
<path d="M241.663 0.520996H8.32746C4.01413 0.520996 0.520996 4.04307 0.520996 8.37571V151.459C0.520996 155.801 4.01413 159.314 8.32746 159.314H241.663C245.976 159.314 249.469 155.792 249.469 151.459V8.37571C249.469 4.04307 245.976 0.520996 241.663 0.520996ZM25.8414 147.985C24.6255 147.985 23.6316 147.001 23.6316 145.775C23.6316 144.55 24.6159 143.566 25.8414 143.566C27.0668 143.566 28.0511 144.56 28.0511 145.775C28.0511 146.991 27.0572 147.985 25.8414 147.985ZM63.2622 154.73C61.6315 154.73 60.3095 153.408 60.3095 151.777C60.3095 150.147 61.6315 148.825 63.2622 148.825C64.893 148.825 66.215 150.147 66.215 151.777C66.215 153.408 64.893 154.73 63.2622 154.73ZM71.3678 88.2063C62.6929 88.2063 55.6584 81.1717 55.6584 72.4968C55.6584 63.8219 62.6929 56.7874 71.3678 56.7874C80.0428 56.7874 87.0773 63.8219 87.0773 72.4968C87.0773 81.1717 80.0428 88.2063 71.3678 88.2063ZM90.7055 149.712C90.7055 150.6 89.9818 151.324 89.1037 151.324H86.2571C85.3693 151.324 84.6552 150.6 84.6552 149.712V146.866C84.6552 145.978 85.3789 145.264 86.2571 145.264H89.1037C89.9818 145.264 90.7055 145.978 90.7055 146.866V149.712ZM91.7766 55.5233H156.612V89.48H91.7669V55.5233H91.7766ZM160.423 150.571C160.423 151.459 159.7 152.173 158.822 152.173H155.975C155.087 152.173 154.363 151.459 154.363 150.571V147.725C154.363 146.837 155.087 146.113 155.975 146.113H158.822C159.709 146.113 160.423 146.837 160.423 147.725V150.571ZM181.807 155.608C180.166 155.608 178.835 154.277 178.835 152.636C178.835 150.996 180.166 149.664 181.807 149.664C183.447 149.664 184.779 150.996 184.779 152.636C184.779 154.277 183.447 155.608 181.807 155.608ZM177.407 88.2063C168.732 88.2063 161.697 81.1717 161.697 72.4968C161.697 63.8219 168.732 56.7874 177.407 56.7874C186.081 56.7874 193.116 63.8219 193.116 72.4968C193.116 81.1717 186.081 88.2063 177.407 88.2063ZM225.345 147.985C224.12 147.985 223.136 147.001 223.136 145.775C223.136 144.55 224.12 143.566 225.345 143.566C226.571 143.566 227.555 144.56 227.555 145.775C227.555 146.991 226.561 147.985 225.345 147.985Z" fill="#D7D7C0"/>
<path d="M241.663 159.835H8.32754C3.73437 159.835 0 156.081 0 151.459V8.37579C0 3.76332 3.73437 0 8.32754 0H241.663C246.256 0 249.99 3.76332 249.99 8.37579V151.459C249.99 156.081 246.256 159.835 241.663 159.835V159.835ZM8.32754 1.0518C4.31334 1.0518 1.04215 4.34229 1.04215 8.37579V151.459C1.04215 155.502 4.31334 158.793 8.32754 158.793H241.663C245.677 158.793 248.948 155.502 248.948 151.459V8.37579C248.948 4.33264 245.677 1.0518 241.663 1.0518H8.32754V1.0518ZM157.123 90.0011H91.2459V54.9926H157.123V90.0011V90.0011ZM92.2881 88.959H156.081V56.0444H92.2977V88.959H92.2881ZM177.397 88.7274C168.452 88.7274 161.166 81.4516 161.166 72.4969C161.166 63.5421 168.442 56.2664 177.397 56.2664C186.352 56.2664 193.627 63.5421 193.627 72.4969C193.627 81.4516 186.352 88.7274 177.397 88.7274V88.7274ZM177.397 57.3182C169.021 57.3182 162.218 64.1307 162.218 72.4969C162.218 80.863 169.031 87.6852 177.397 87.6852C185.763 87.6852 192.585 80.8727 192.585 72.4969C192.585 64.1211 185.773 57.3182 177.397 57.3182ZM71.3486 88.7274C62.3938 88.7274 55.1181 81.4516 55.1181 72.4969C55.1181 63.5421 62.3938 56.2664 71.3486 56.2664C80.3033 56.2664 87.5791 63.5421 87.5791 72.4969C87.5791 81.4516 80.3033 88.7274 71.3486 88.7274V88.7274ZM71.3486 57.3182C62.9728 57.3182 56.1602 64.1307 56.1602 72.4969C56.1602 80.863 62.9728 87.6852 71.3486 87.6852C79.7244 87.6852 86.5273 80.8727 86.5273 72.4969C86.5273 64.1211 79.7147 57.3182 71.3486 57.3182Z" fill="#9F9F8D"/>
<path opacity="0.7" d="M146.441 158.793H99.207V144.714H146.441V158.793ZM100.259 158.793H145.399V147.956H100.259V158.793V158.793Z" fill="#CCCCB4"/>
<path d="M71.3584 19.5C36.3499 19.5 15 37.4885 15 72.4873C15 107.486 36.3596 106 71.3584 106C106.357 106 134.833 107.496 134.833 72.4969C134.833 37.4981 106.357 19.5 71.3584 19.5ZM71.3584 88.1967C62.6835 88.1967 55.649 81.1622 55.649 72.4873C55.649 63.8124 62.6835 56.7779 71.3584 56.7779C80.0333 56.7779 87.0678 63.8124 87.0678 72.4873C87.0678 81.1622 80.0333 88.1967 71.3584 88.1967Z" fill="#4D393D"/>
<path d="M177.407 43.0562C161.176 43.0562 147.966 56.2663 147.966 72.5065C147.966 88.7466 161.176 101.947 177.407 101.947C193.637 101.947 206.847 88.737 206.847 72.5065C206.847 56.276 193.647 43.0562 177.407 43.0562V43.0562ZM177.407 88.2063C168.732 88.2063 161.697 81.1718 161.697 72.4968C161.697 63.8219 168.732 56.7874 177.407 56.7874C186.081 56.7874 193.116 63.8219 193.116 72.4968C193.116 81.1718 186.081 88.2063 177.407 88.2063Z" fill="#291317"/>
<path d="M71.3584 88.7276C62.4133 88.7276 55.1279 81.4519 55.1279 72.4971C55.1279 63.5423 62.4037 56.2666 71.3584 56.2666C80.3132 56.2666 87.5889 63.5423 87.5889 72.4971C87.5889 81.4519 80.3132 88.7276 71.3584 88.7276ZM71.3584 57.3184C62.9826 57.3184 56.1797 64.131 56.1797 72.4971C56.1797 80.8632 62.9923 87.6855 71.3584 87.6855C79.7246 87.6855 86.5468 80.8729 86.5468 72.4971C86.5468 64.1213 79.7342 57.3184 71.3584 57.3184Z" fill="white"/>
<path d="M71.3586 58.5537C63.6679 58.5537 57.415 64.8066 57.415 72.4973C57.415 80.1879 63.6776 86.4505 71.3586 86.4505C79.0396 86.4505 85.3118 80.1879 85.3118 72.4973C85.3118 64.8066 79.0493 58.5537 71.3586 58.5537V58.5537ZM82.7065 78.0071L79.6765 76.1062L77.1676 80.1107L79.8695 81.8091C77.7852 83.7197 75.0737 84.9259 72.0727 85.0995L72.2753 81.4617L67.5567 81.2011L67.3734 84.482C64.5653 83.546 62.2012 81.645 60.6573 79.1844L64.0057 77.5633L61.9407 73.3078L58.9397 74.7649C58.8046 74.0219 58.7274 73.2692 58.7274 72.4973C58.7274 70.2489 59.3256 68.1357 60.3678 66.2926L63.4074 68.4445L66.1382 64.5847L63.4363 62.6741C65.3084 61.1591 67.6049 60.1748 70.1235 59.9239V63.5908H74.8517V60.3678C77.6694 61.1784 80.0914 62.9442 81.7319 65.2987L78.5958 67.0356L80.8827 71.1753L83.6521 69.641C83.8644 70.5674 83.9898 71.513 83.9898 72.4973C83.9898 74.4754 83.517 76.3378 82.7065 78.0071V78.0071Z" fill="#E2DBCE"/>
<path d="M177.407 88.7276C168.462 88.7276 161.176 81.4519 161.176 72.4971C161.176 63.5423 168.452 56.2666 177.407 56.2666C186.362 56.2666 193.637 63.5423 193.637 72.4971C193.637 81.4519 186.362 88.7276 177.407 88.7276V88.7276ZM177.407 57.3184C169.031 57.3184 162.228 64.131 162.228 72.4971C162.228 80.8632 169.041 87.6855 177.407 87.6855C185.773 87.6855 192.595 80.8729 192.595 72.4971C192.595 64.1213 185.783 57.3184 177.407 57.3184Z" fill="white"/>
<path d="M177.407 58.5537C169.716 58.5537 163.454 64.8066 163.454 72.4973C163.454 80.1879 169.707 86.4505 177.407 86.4505C185.107 86.4505 191.35 80.1879 191.35 72.4973C191.35 64.8066 185.098 58.5537 177.407 58.5537V58.5537ZM188.755 78.0071L185.725 76.1062L183.216 80.1107L185.918 81.8091C183.833 83.7197 181.122 84.9259 178.121 85.0995L178.324 81.4617L173.605 81.2011L173.422 84.482C170.614 83.546 168.249 81.645 166.706 79.1844L170.044 77.5633L167.989 73.3078L164.978 74.7649C164.843 74.0219 164.766 73.2692 164.766 72.4973C164.766 70.2489 165.364 68.1357 166.406 66.2926L169.456 68.4445L172.186 64.5847L169.485 62.6741C171.347 61.1591 173.653 60.1748 176.162 59.9239V63.5908H180.89V60.3678C183.708 61.1784 186.12 62.9442 187.761 65.2987L184.625 67.0356L186.912 71.1753L189.681 69.641C189.893 70.5674 190.019 71.513 190.019 72.4973C190.019 74.4754 189.546 76.3378 188.735 78.0071H188.755Z" fill="#E2DBCE"/>
<path d="M180.572 91.8443H68.8784C63.3685 91.8443 51.9917 87.2318 51.9917 72.9891C52.4645 58.8525 64.1019 53.1689 68.8784 53.1689H180.572C184.017 53.1689 196.358 57.8683 196.928 72.7864C196.928 87.0967 184.036 91.8443 180.572 91.8443ZM68.8784 55.2532C64.7001 55.2532 54.5006 60.3675 54.0856 73.018C54.0856 85.6493 64.0536 89.7503 68.8784 89.7503H180.572C183.592 89.7503 194.834 85.5238 194.834 72.825C194.342 59.6631 183.447 55.2532 180.572 55.2532H68.8784Z" fill="white"/>
<path opacity="0.7" d="M225.336 153.186C221.245 153.186 217.916 149.857 217.916 145.775C217.916 141.694 221.245 138.355 225.336 138.355C229.427 138.355 232.747 141.684 232.747 145.775C232.747 149.867 229.427 153.186 225.336 153.186ZM225.336 139.146C221.679 139.146 218.707 142.118 218.707 145.775C218.707 149.433 221.679 152.405 225.336 152.405C228.993 152.405 231.965 149.433 231.965 145.775C231.965 142.118 228.993 139.146 225.336 139.146Z" fill="#C5C5B0"/>
<path opacity="0.7" d="M225.336 148.96C223.58 148.96 222.152 147.532 222.152 145.776C222.152 144.019 223.58 142.591 225.336 142.591C227.092 142.591 228.521 144.019 228.521 145.776C228.521 147.532 227.092 148.96 225.336 148.96ZM225.336 143.556C224.111 143.556 223.107 144.55 223.107 145.776C223.107 147.001 224.111 148.005 225.336 148.005C226.562 148.005 227.556 147.001 227.556 145.776C227.556 144.55 226.562 143.556 225.336 143.556Z" fill="#C5C5B0"/>
<path opacity="0.7" d="M25.8415 153.186C21.7501 153.186 18.4307 149.857 18.4307 145.775C18.4307 141.694 21.7501 138.355 25.8415 138.355C29.9329 138.355 33.2523 141.684 33.2523 145.775C33.2523 149.867 29.9233 153.186 25.8415 153.186ZM25.8415 139.146C22.1843 139.146 19.2123 142.118 19.2123 145.775C19.2123 149.433 22.1843 152.405 25.8415 152.405C29.4987 152.405 32.4707 149.433 32.4707 145.775C32.4707 142.118 29.4987 139.146 25.8415 139.146V139.146Z" fill="#C5C5B0"/>
<path opacity="0.7" d="M25.8415 148.97C24.0852 148.97 22.6475 147.532 22.6475 145.776C22.6475 144.019 24.0756 142.582 25.8415 142.582C27.6073 142.582 29.0354 144.019 29.0354 145.776C29.0354 147.532 27.6073 148.97 25.8415 148.97ZM25.8415 143.546C24.6063 143.546 23.6124 144.54 23.6124 145.776C23.6124 147.011 24.6063 148.005 25.8415 148.005C27.0766 148.005 28.0705 147.001 28.0705 145.776C28.0705 144.55 27.0766 143.546 25.8415 143.546Z" fill="#C5C5B0"/>
<path d="M244.461 151.739C244.461 153.611 242.937 155.136 241.065 155.136C239.193 155.136 237.668 153.621 237.668 151.739C237.668 149.857 239.183 148.342 241.065 148.342C242.946 148.342 244.461 149.857 244.461 151.739Z" fill="#CCCCB4"/>
<path d="M241.065 155.396C239.048 155.396 237.408 153.755 237.408 151.739C237.408 149.722 239.048 148.082 241.065 148.082C243.082 148.082 244.722 149.722 244.722 151.739C244.722 153.755 243.082 155.396 241.065 155.396ZM241.065 148.603C239.338 148.603 237.929 150.011 237.929 151.739C237.929 153.466 239.338 154.875 241.065 154.875C242.792 154.875 244.201 153.466 244.201 151.739C244.201 150.011 242.792 148.603 241.065 148.603Z" fill="#AFAF86"/>
<path d="M243.062 151.478H241.412V149.857H240.891V151.478H239.202V151.999H240.891V153.62H241.412V151.999H243.062V151.478Z" fill="#AFAF86"/>
<path d="M128.445 133.289C128.445 135.17 126.93 136.685 125.048 136.685C123.167 136.685 121.652 135.17 121.652 133.289C121.652 131.407 123.176 129.892 125.048 129.892C126.92 129.892 128.445 131.407 128.445 133.289Z" fill="#CCCCB4"/>
<path d="M125.048 136.946C123.032 136.946 121.391 135.305 121.391 133.289C121.391 131.272 123.032 129.631 125.048 129.631C127.065 129.631 128.705 131.272 128.705 133.289C128.705 135.305 127.065 136.946 125.048 136.946ZM125.048 130.152C123.321 130.152 121.912 131.552 121.912 133.289C121.912 135.025 123.321 136.425 125.048 136.425C126.776 136.425 128.184 135.025 128.184 133.289C128.184 131.552 126.776 130.152 125.048 130.152Z" fill="#AFAF86"/>
<path d="M127.046 133.028H125.405V131.407H124.875V133.028H123.186V133.549H124.875V135.17H125.405V133.549H127.046V133.028Z" fill="#AFAF86"/>
<path d="M12.3133 151.739C12.3133 153.611 10.7983 155.136 8.91665 155.136C7.035 155.136 5.52002 153.621 5.52002 151.739C5.52002 149.857 7.04465 148.342 8.91665 148.342C10.7887 148.342 12.3133 149.857 12.3133 151.739Z" fill="#CCCCB4"/>
<path d="M8.91645 155.396C6.8997 155.396 5.25928 153.755 5.25928 151.739C5.25928 149.722 6.8997 148.082 8.91645 148.082C10.9332 148.082 12.5736 149.722 12.5736 151.739C12.5736 153.755 10.9332 155.396 8.91645 155.396V155.396ZM8.91645 148.603C7.18918 148.603 5.78035 150.011 5.78035 151.739C5.78035 153.466 7.18918 154.875 8.91645 154.875C10.6437 154.875 12.0525 153.466 12.0525 151.739C12.0525 150.011 10.6534 148.603 8.91645 148.603Z" fill="#AFAF86"/>
<path d="M10.9237 151.478H9.27359V149.857H8.74287V151.478H7.0542V151.999H8.74287V153.62H9.27359V151.999H10.9237V151.478Z" fill="#AFAF86"/>
<path d="M243.883 6.72574C243.883 8.59775 242.368 10.1224 240.486 10.1224C238.604 10.1224 237.08 8.59775 237.08 6.72574C237.08 4.85373 238.604 3.3291 240.486 3.3291C242.368 3.3291 243.883 4.85373 243.883 6.72574V6.72574Z" fill="#CCCCB4"/>
<path d="M240.486 10.3827C238.469 10.3827 236.829 8.74228 236.829 6.72553C236.829 4.70878 238.469 3.06836 240.486 3.06836C242.503 3.06836 244.143 4.70878 244.143 6.72553C244.143 8.74228 242.503 10.3827 240.486 10.3827ZM240.486 3.58943C238.759 3.58943 237.35 4.99826 237.35 6.72553C237.35 8.45279 238.759 9.86163 240.486 9.86163C242.213 9.86163 243.622 8.45279 243.622 6.72553C243.622 4.99826 242.213 3.58943 240.486 3.58943V3.58943Z" fill="#AFAF86"/>
<path d="M242.483 6.46487H240.843V4.84375H240.312V6.46487H238.624V6.98595H240.312V8.60707H240.843V6.98595H242.483V6.46487Z" fill="#AFAF86"/>
<path d="M11.7337 6.72574C11.7337 8.59775 10.2091 10.1224 8.33706 10.1224C6.46506 10.1224 4.94043 8.59775 4.94043 6.72574C4.94043 4.85373 6.46506 3.3291 8.33706 3.3291C10.2091 3.3291 11.7337 4.85373 11.7337 6.72574V6.72574Z" fill="#CCCCB4"/>
<path d="M8.33735 10.3827C6.3206 10.3827 4.68018 8.74228 4.68018 6.72553C4.68018 4.70878 6.3206 3.06836 8.33735 3.06836C10.3541 3.06836 11.9945 4.70878 11.9945 6.72553C11.9945 8.74228 10.3541 10.3827 8.33735 10.3827ZM8.33735 3.58943C6.61008 3.58943 5.20125 4.99826 5.20125 6.72553C5.20125 8.45279 6.61008 9.86163 8.33735 9.86163C10.0646 9.86163 11.4734 8.45279 11.4734 6.72553C11.4734 4.99826 10.0646 3.58943 8.33735 3.58943V3.58943Z" fill="#AFAF86"/>
<path d="M10.3442 6.46487H8.69412V4.84375H8.17304V6.46487H6.48438V6.98595H8.17304V8.60707H8.69412V6.98595H10.3442V6.46487Z" fill="#AFAF86"/>
<path d="M212.27 156.359C212.547 157.608 211.597 158.793 210.317 158.793H39.6459C38.3751 158.793 37.4265 157.623 37.689 156.38L45.1723 120.923C45.3675 119.998 46.1838 119.336 47.1292 119.336H202.435C203.372 119.336 204.184 119.987 204.387 120.902L212.27 156.359ZM37.9806 158.793H209.385C210.703 158.793 211.66 157.541 211.315 156.269L202.636 124.305C202.399 123.434 201.608 122.829 200.705 122.829H48.1293C47.2031 122.829 46.398 123.465 46.1836 124.366L37.9925 158.783C37.9912 158.789 37.9863 158.793 37.9806 158.793V158.793Z" fill="#CCCCB4"/>
<path d="M236.414 24.8284L226.185 13.606H25.2818L12.4189 25.8223V37.6719H236.414V24.8284Z" fill="#FCFCEE"/>
<path d="M236.414 106.318H12.4189V116.537H236.414V106.318Z" fill="#FCFCEE"/>
<path d="M12.4189 37.6719V106.319H236.414V37.6719H12.4189ZM71.3583 88.2064C62.6834 88.2064 55.6488 81.1719 55.6488 72.497C55.6488 63.8221 62.6834 56.7876 71.3583 56.7876C80.0332 56.7876 87.0677 63.8221 87.0677 72.497C87.0677 81.1719 80.0332 88.2064 71.3583 88.2064ZM156.612 89.4802H91.767V55.5235H156.602V89.4802H156.612ZM177.407 88.2064C168.732 88.2064 161.697 81.1719 161.697 72.497C161.697 63.8221 168.732 56.7876 177.407 56.7876C186.082 56.7876 193.116 63.8221 193.116 72.497C193.116 81.1719 186.082 88.2064 177.407 88.2064Z" fill="#DA7433"/>
<path opacity="0.7" d="M181.797 156.554C179.636 156.554 177.879 154.788 177.879 152.626C177.879 150.465 179.636 148.708 181.797 148.708C183.959 148.708 185.715 150.465 185.715 152.626C185.715 154.788 183.959 156.554 181.797 156.554ZM181.797 149.76C180.215 149.76 178.922 151.044 178.922 152.626C178.922 154.209 180.205 155.492 181.797 155.492C183.389 155.492 184.673 154.209 184.673 152.626C184.673 151.044 183.38 149.76 181.797 149.76Z" fill="#B4B49F"/>
<path opacity="0.7" d="M158.812 153.225H155.965C154.498 153.225 153.312 152.038 153.312 150.571V147.724C153.312 146.258 154.498 145.071 155.965 145.071H158.812C160.278 145.071 161.465 146.258 161.465 147.724V150.571C161.465 152.038 160.278 153.225 158.812 153.225ZM155.965 146.113C155.077 146.113 154.354 146.837 154.354 147.724V150.571C154.354 151.459 155.077 152.183 155.965 152.183H158.812C159.7 152.183 160.423 151.459 160.423 150.571V147.724C160.423 146.837 159.7 146.113 158.812 146.113H155.965Z" fill="#B4B49F"/>
<path opacity="0.7" d="M63.2527 155.695C61.0912 155.695 59.335 153.929 59.335 151.777C59.335 149.625 61.0912 147.859 63.2527 147.859C65.4142 147.859 67.1704 149.616 67.1704 151.777C67.1704 153.939 65.4142 155.695 63.2527 155.695ZM63.2527 148.902C61.6701 148.902 60.3771 150.185 60.3771 151.777C60.3771 153.369 61.6605 154.653 63.2527 154.653C64.8448 154.653 66.1282 153.36 66.1282 151.777C66.1282 150.195 64.8448 148.902 63.2527 148.902Z" fill="#B4B49F"/>
<path opacity="0.7" d="M89.094 152.366H86.2474C84.7806 152.366 83.5938 151.179 83.5938 149.712V146.866C83.5938 145.399 84.7806 144.212 86.2474 144.212H89.094C90.5607 144.212 91.7476 145.399 91.7476 146.866V149.712C91.7476 151.179 90.5511 152.366 89.094 152.366ZM86.2474 145.254C85.3596 145.254 84.6359 145.978 84.6359 146.866V149.712C84.6359 150.6 85.3596 151.324 86.2474 151.324H89.094C89.9817 151.324 90.7054 150.6 90.7054 149.712V146.866C90.7054 145.978 89.9817 145.254 89.094 145.254H86.2474Z" fill="#B4B49F"/>
<path opacity="0.6" d="M156.602 55.5234H91.7671V89.4801H156.602V55.5234Z" fill="#8C6F49"/>
<path fill-rule="evenodd" clip-rule="evenodd" d="M60.7454 49.1802C47.5678 49.1802 36.8853 59.8627 36.8853 73.0403C36.8853 86.2179 47.5678 96.9005 60.7454 96.9005H187.682C200.859 96.9005 211.542 86.2179 211.542 73.0403C211.542 59.8627 200.859 49.1802 187.682 49.1802H60.7454ZM156.186 56.8154H92.2408V89.2652H156.186V56.8154ZM87.5832 72.6204C87.5832 81.3532 80.5111 88.4254 71.7783 88.4254C63.0454 88.4254 55.9733 81.3532 55.9733 72.6204C55.9733 63.8875 63.0454 56.8154 71.7783 56.8154C80.5111 56.8154 87.5832 63.8875 87.5832 72.6204ZM177.718 88.4254C186.45 88.4254 193.523 81.3532 193.523 72.6204C193.523 63.8875 186.45 56.8154 177.718 56.8154C168.985 56.8154 161.913 63.8875 161.913 72.6204C161.913 81.3532 168.985 88.4254 177.718 88.4254Z" fill="#3A3A3A"/>
</g>
<defs>
<clipPath id="clip0_191_447">
<rect width="250" height="159.835" fill="white"/>
</clipPath>
</defs>
</svg>
